<svg width="46" height="46" viewBox="0 0 46 46" fill="none" xmlns="http://www.w3.org/2000/svg">
<mask id="path-1-inside-1" fill="white">
<path fill-rule="evenodd" clip-rule="evenodd" d="M21.9841 0C20.3273 0 18.9841 1.34315 18.9841 3V18.9841H3C1.34315 18.9841 0 20.3273 0 21.9841V24.0159C0 25.6727 1.34315 27.0159 3 27.0159H18.9841V43C18.9841 44.6569 20.3273 46 21.9841 46H24.0159C25.6727 46 27.0159 44.6569 27.0159 43V27.0159H43C44.6569 27.0159 46 25.6727 46 24.0159V21.9841C46 20.3273 44.6569 18.9841 43 18.9841H27.0159V3C27.0159 1.34315 25.6727 0 24.0159 0H21.9841Z"/>
</mask>
<path fill-rule="evenodd" clip-rule="evenodd" d="M21.9841 0C20.3273 0 18.9841 1.34315 18.9841 3V18.9841H3C1.34315 18.9841 0 20.3273 0 21.9841V24.0159C0 25.6727 1.34315 27.0159 3 27.0159H18.9841V43C18.9841 44.6569 20.3273 46 21.9841 46H24.0159C25.6727 46 27.0159 44.6569 27.0159 43V27.0159H43C44.6569 27.0159 46 25.6727 46 24.0159V21.9841C46 20.3273 44.6569 18.9841 43 18.9841H27.0159V3C27.0159 1.34315 25.6727 0 24.0159 0H21.9841Z" fill="white"/>
<path d="M18.9841 18.9841V19.9841H19.9841V18.9841H18.9841ZM18.9841 27.0159H19.9841V26.0159H18.9841V27.0159ZM27.0159 27.0159V26.0159H26.0159V27.0159H27.0159ZM27.0159 18.9841H26.0159V19.9841H27.0159V18.9841ZM19.9841 3C19.9841 1.89543 20.8796 1 21.9841 1V-1C19.775 -1 17.9841 0.79086 17.9841 3H19.9841ZM19.9841 18.9841V3H17.9841V18.9841H19.9841ZM3 19.9841H18.9841V17.9841H3V19.9841ZM1 21.9841C1 20.8796 1.89543 19.9841 3 19.9841V17.9841C0.790859 17.9841 -1 19.775 -1 21.9841H1ZM1 24.0159V21.9841H-1V24.0159H1ZM3 26.0159C1.89543 26.0159 1 25.1204 1 24.0159H-1C-1 26.225 0.79086 28.0159 3 28.0159V26.0159ZM18.9841 26.0159H3V28.0159H18.9841V26.0159ZM19.9841 43V27.0159H17.9841V43H19.9841ZM21.9841 45C20.8796 45 19.9841 44.1046 19.9841 43H17.9841C17.9841 45.2091 19.775 47 21.9841 47V45ZM24.0159 45H21.9841V47H24.0159V45ZM26.0159 43C26.0159 44.1046 25.1204 45 24.0159 45V47C26.225 47 28.0159 45.2091 28.0159 43H26.0159ZM26.0159 27.0159V43H28.0159V27.0159H26.0159ZM43 26.0159H27.0159V28.0159H43V26.0159ZM45 24.0159C45 25.1204 44.1046 26.0159 43 26.0159V28.0159C45.2091 28.0159 47 26.225 47 24.0159H45ZM45 21.9841V24.0159H47V21.9841H45ZM43 19.9841C44.1046 19.9841 45 20.8796 45 21.9841H47C47 19.775 45.2091 17.9841 43 17.9841V19.9841ZM27.0159 19.9841H43V17.9841H27.0159V19.9841ZM26.0159 3V18.9841H28.0159V3H26.0159ZM24.0159 1C25.1204 1 26.0159 1.89543 26.0159 3H28.0159C28.0159 0.790859 26.225 -1 24.0159 -1V1ZM21.9841 1H24.0159V-1H21.9841V1Z" fill="#7E7169" mask="url(#path-1-inside-1)"/>
</svg>
