<svg width="33" height="33" viewBox="0 0 33 33" fill="none" xmlns="http://www.w3.org/2000/svg">
<path d="M32.6339 0.366094C32.3994 0.131705 32.0815 2.22414e-05 31.75 0H31.7461L21.7773 0.0314063C21.5939 0.0319973 21.4128 0.0729703 21.2469 0.151417C21.0811 0.229863 20.9345 0.343859 20.8176 0.485312L9.81827 13.8005L8.51765 12.4998C8.04834 12.0319 7.41263 11.7691 6.74988 11.7691C6.08713 11.7692 5.45144 12.032 4.98218 12.5L2.99999 14.4822C2.76784 14.7143 2.58368 14.9899 2.45804 15.2932C2.33239 15.5965 2.26773 15.9216 2.26773 16.2499C2.26773 16.5782 2.33239 16.9033 2.45804 17.2066C2.58368 17.5099 2.76784 17.7855 2.99999 18.0177L6.26358 21.2814L1.58515 25.9598C1.11703 26.4291 0.854158 27.0648 0.854187 27.7276C0.854216 28.3904 1.11715 29.0261 1.5853 29.4953L3.50468 31.4147C3.73683 31.6468 4.01243 31.831 4.31575 31.9567C4.61907 32.0823 4.94417 32.147 5.27249 32.147C5.60081 32.147 5.92591 32.0823 6.22923 31.9567C6.53255 31.831 6.80816 31.6468 7.0403 31.4147L11.7184 26.7362L14.9823 30.0002C15.4517 30.4681 16.0874 30.7308 16.7501 30.7308C17.4128 30.7308 18.0485 30.468 18.5178 30L20.5 28.0178C20.7322 27.7857 20.9163 27.5101 21.042 27.2068C21.1676 26.9035 21.2323 26.5784 21.2323 26.2501C21.2323 25.9218 21.1677 25.5967 21.0421 25.2934C20.9164 24.9901 20.7323 24.7145 20.5001 24.4823L19.1997 23.1817L32.5148 12.1823C32.6563 12.0655 32.7703 11.9189 32.8487 11.753C32.9272 11.5871 32.9682 11.406 32.9687 11.2225L33 1.25391C33.0005 1.0891 32.9684 0.925811 32.9056 0.773445C32.8428 0.62108 32.7504 0.482641 32.6339 0.366094ZM30.4705 10.6283L17.4237 21.4062L15.3928 19.375L23.8839 10.8839C24.1183 10.6495 24.25 10.3315 24.25 10C24.25 9.66847 24.1183 9.35052 23.8839 9.11609C23.6495 8.88167 23.3315 8.74997 23 8.74997C22.6685 8.74997 22.3505 8.88167 22.1161 9.11609L13.625 17.6072L11.5941 15.5761L22.3717 2.52953L30.4961 2.50391L30.4705 10.6283Z" fill="white"/>
</svg>
