<svg width="34" height="10" viewBox="0 0 34 10" fill="none" xmlns="http://www.w3.org/2000/svg">
<mask id="path-1-inside-1" fill="white">
<path d="M3.33337 9.30283C1.67652 9.30283 0.333374 7.95968 0.333374 6.30283L0.333374 3.66333C0.333374 2.00647 1.67652 0.663328 3.33337 0.663328L30.6667 0.663326C32.3236 0.663326 33.6667 2.00647 33.6667 3.66333L33.6667 6.30282C33.6667 7.95968 32.3236 9.30283 30.6667 9.30283L3.33337 9.30283Z"/>
</mask>
<path d="M3.33337 9.30283C1.67652 9.30283 0.333374 7.95968 0.333374 6.30283L0.333374 3.66333C0.333374 2.00647 1.67652 0.663328 3.33337 0.663328L30.6667 0.663326C32.3236 0.663326 33.6667 2.00647 33.6667 3.66333L33.6667 6.30282C33.6667 7.95968 32.3236 9.30283 30.6667 9.30283L3.33337 9.30283Z" fill="white"/>
<path d="M3.33337 9.30283L3.33337 8.30283L3.33337 9.30283ZM0.333374 6.30283L-0.666626 6.30283L0.333374 6.30283ZM0.333374 3.66333L1.33337 3.66333L0.333374 3.66333ZM33.6667 3.66333L32.6667 3.66333L33.6667 3.66333ZM33.6667 6.30282L34.6667 6.30282L33.6667 6.30282ZM3.33337 8.30283C2.2288 8.30283 1.33337 7.4074 1.33337 6.30283L-0.666626 6.30283C-0.666626 8.51197 1.12423 10.3028 3.33337 10.3028L3.33337 8.30283ZM1.33337 6.30283L1.33337 3.66333L-0.666626 3.66333L-0.666626 6.30283L1.33337 6.30283ZM1.33337 3.66333C1.33337 2.55876 2.22881 1.66333 3.33337 1.66333L3.33337 -0.336672C1.12423 -0.336672 -0.666626 1.45419 -0.666626 3.66333L1.33337 3.66333ZM3.33337 1.66333L30.6667 1.66333L30.6667 -0.336674L3.33337 -0.336672L3.33337 1.66333ZM30.6667 1.66333C31.7713 1.66333 32.6667 2.55876 32.6667 3.66333L34.6667 3.66333C34.6667 1.45419 32.8758 -0.336674 30.6667 -0.336674L30.6667 1.66333ZM32.6667 3.66333L32.6667 6.30282L34.6667 6.30282L34.6667 3.66333L32.6667 3.66333ZM32.6667 6.30282C32.6667 7.40739 31.7713 8.30283 30.6667 8.30283L30.6667 10.3028C32.8759 10.3028 34.6667 8.51196 34.6667 6.30282L32.6667 6.30282ZM30.6667 8.30283L3.33337 8.30283L3.33337 10.3028L30.6667 10.3028L30.6667 8.30283Z" fill="#7E7169" mask="url(#path-1-inside-1)"/>
</svg>
