<svg width="718" height="672" viewBox="0 0 718 672" fill="none" xmlns="http://www.w3.org/2000/svg">
<path d="M0.00500488 151V542C0.00500488 578 15.005 610 39.005 635C63.005 659 94.005 672 130.005 672H326.005V591H130.005C103.005 591 82.005 569 82.005 542V151C82.005 124 103.005 103 130.005 103H326.005V21H130.005C94.005 21 63.005 35 39.005 59C15.005 84 0.00500488 115 0.00500488 151ZM215.005 269V425C215.005 443 231.005 458 249.005 458H430.005V581C430.005 592 436.005 601 446.005 606C450.005 607 454.005 607 456.005 607C463.005 607 469.005 605 474.005 600L709.005 365C720.005 356 719.005 338 709.005 328L474.005 94C460.005 79 430.005 88 430.005 112V236H249.005C231.005 236 215.005 251 215.005 269Z" fill="white"/>
</svg>
