<svg width="20" height="20" viewBox="0 0 20 20" fill="none" xmlns="http://www.w3.org/2000/svg">
<path d="M10 0.400024C7.45395 0.400024 5.01215 1.41145 3.2118 3.2118C1.41145 5.01215 0.400024 7.45395 0.400024 10C0.40009 11.2607 0.648466 12.509 1.13097 13.6737C1.61348 14.8384 2.32066 15.8967 3.21215 16.7881C4.10364 17.6795 5.16197 18.3866 6.32673 18.869C7.49148 19.3513 8.73983 19.5996 10.0005 19.5995C11.2612 19.5995 12.5095 19.3511 13.6742 18.8686C14.8389 18.3861 15.8972 17.6789 16.7886 16.7874C17.68 15.8959 18.3871 14.8376 18.8695 13.6728C19.3518 12.5081 19.6001 11.2597 19.6 9.99902C19.6 4.69802 15.301 0.400024 10 0.400024ZM10 17.599C9.00198 17.599 8.0137 17.4024 7.09163 17.0205C6.16956 16.6386 5.33174 16.0788 4.62601 15.373C3.92029 14.6673 3.36048 13.8295 2.97854 12.9074C2.5966 11.9853 2.40002 10.9971 2.40002 9.99902C2.40002 9.00098 2.5966 8.0127 2.97854 7.09063C3.36048 6.16856 3.92029 5.33074 4.62601 4.62501C5.33174 3.91929 6.16956 3.35948 7.09163 2.97754C8.0137 2.5956 9.00198 2.39902 10 2.39902V10L16.792 6.60402C17.323 7.65734 17.5998 8.82044 17.6 10C17.5998 12.0155 16.7989 13.9483 15.3737 15.3734C13.9484 16.7985 12.0155 17.599 10 17.599Z" fill="white"/>
</svg>
