<svg width="68" height="59" viewBox="0 0 68 59" fill="none" xmlns="http://www.w3.org/2000/svg">
<path d="M44.0829 7.6265C40.4321 7.6265 36.3196 4.77297 36.3196 4.77297C35.6272 4.05959 34.8299 3.40915 33.9906 2.84264C37.5995 2.23417 38.8375 0.0100917 38.8375 0.0100917C36.8022 2.04533 28.4305 0.450718 28.4305 0.450718C23.6046 -0.682302 18.3801 0.261871 15.4007 3.95468C15.4007 3.95468 9.33697 5.69618 7.95217 12.1586C7.74235 13.1657 7.63744 14.2987 7.6794 15.5577C7.34369 18.1174 6.60933 21.4326 5.01471 23.0482C5.01471 23.0482 6.77718 21.4955 8.28788 19.4393C8.87537 21.7263 9.8825 24.3281 11.5191 27.2865L34.8929 25.0624C34.8929 25.0624 36.3196 23.258 37.5995 20.5723C37.7254 21.7683 38.1031 22.9223 38.8375 23.8665C38.8375 23.8665 38.3759 20.8241 39.1312 16.313C39.2571 15.8094 39.362 15.2849 39.4249 14.7603V14.7394C39.7397 12.4943 39.5718 10.1024 38.4808 7.83632C38.4178 7.68945 38.3339 7.54258 38.25 7.39571C41.3763 8.46578 44.0829 7.6265 44.0829 7.6265Z" fill="#F39200"/>
<path d="M11.498 26.1954L17.3939 58.0459L22.1358 57.4794L24.213 49.5063H27.0456L30.8223 57.878L33.55 58.0878L38.5227 26.1954H11.498Z" fill="#936037"/>
<path d="M7.9941 29.1329C7.9941 29.1329 2.83256 47.0305 6.08475 50.2826L12.8199 47.6809C12.8199 47.6809 12.5681 35.3855 14.7503 29.028" fill="#936037"/>
<path d="M48.615 33.7279C53.273 33.3503 54.7417 37.0011 53.6506 40.5051C52.5596 44.009 48.615 40.9876 48.615 40.9876" fill="#F4D9BE"/>
<path d="M53.189 6.53546L49.3913 43.5894L53.3359 44.3867L58.0148 7.26983L53.189 6.53546Z" fill="#4A311A"/>
<path d="M49.9158 35.1547C49.9158 35.1547 52.035 35.5953 52.035 37.127C52.035 38.6587 49.0765 40.1904 47.4399 36.1409" fill="#F4D9BE"/>
<path d="M37.6624 26.1954C37.6624 26.1954 44.7543 33.2034 48.6359 33.7279V41.0086C48.6359 41.0086 41.2084 43.1068 31.5567 33.4552" fill="#936037"/>
<path d="M25.8706 28.2726C25.8706 28.2726 38.7744 19.4393 41.2713 27.2235L30.4656 32.0703" fill="#CA9E67"/>
<path d="M19.4502 26.1955C19.4502 26.1955 6.35748 21.7263 6.35748 29.8883L16.9953 31.2101" fill="#CA9E67"/>
<path d="M34.8718 8.19299H15.6315V31.2101H34.8718V8.19299Z" fill="#F4D9BE"/>
<path d="M22.7444 16.7746C23.8564 16.7746 24.7586 15.8724 24.7586 14.7603H20.7301C20.7301 15.8724 21.6323 16.7746 22.7444 16.7746Z" fill="#4A311A"/>
<path d="M31.9344 16.7746C33.0464 16.7746 33.9486 15.8724 33.9486 14.7603H29.9201C29.9201 15.8724 30.8223 16.7746 31.9344 16.7746Z" fill="#4A311A"/>
<path d="M55.0563 35.1547C54.6577 34.6092 52.5805 33.0985 52.5805 36.2458C52.5805 39.3931 51.7832 43.2537 53.3148 43.2537C54.8465 43.2537 57.2804 38.0712 55.0563 35.1547Z" fill="#F4D9BE"/>
<path d="M48.615 41.6591V33.2873L47.44 32.9726L47.0413 41.0086" fill="#CA9E67"/>
<path d="M15.8413 35.5534H25.472L26.3322 31.2731L27.78 35.5534L35.6062 36.2038L27.1086 36.3507L26.605 35.3855L25.7238 36.6444L15.8413 35.5534Z" fill="#CA9E67"/>
<path d="M14.3096 43.7993L35.7321 44.1769L36.949 46.8416L11.498 46.3171L14.3096 43.7993Z" fill="#CA9E67"/>
<path d="M33.5499 58.0878L36.949 58.9481H30.9272L29.983 56.0316" fill="#936037"/>
<path d="M7.38566 42.897C7.38566 42.897 6.39952 48.5411 11.0785 48.5411C15.7574 48.5411 9.52581 40.7358 9.52581 40.7358" fill="#F4D9BE"/>
<path d="M12.2744 50.1777L9.21106 50.8911H15.7154L16.0302 49.7371" fill="#425059"/>
<path d="M11.0784 56.6821C17.1969 56.6821 22.1568 51.7221 22.1568 45.6036C22.1568 39.4852 17.1969 34.5252 11.0784 34.5252C4.95998 34.5252 0 39.4852 0 45.6036C0 51.7221 4.95998 56.6821 11.0784 56.6821Z" fill="#CA9E67"/>
<path d="M11.0784 55.4651C16.5247 55.4651 20.9399 51.05 20.9399 45.6037C20.9399 40.1573 16.5247 35.7422 11.0784 35.7422C5.63205 35.7422 1.21692 40.1573 1.21692 45.6037C1.21692 51.05 5.63205 55.4651 11.0784 55.4651Z" fill="#7D4E24"/>
<path opacity="0.3" d="M0.482544 42.3305L10.0503 55.8218L3.33608 38.4698L13.7641 55.4651L4.49008 36.6864L18.485 53.0522L20.8979 49.7581L10.5329 34.9449L6.46237 35.952L1.69949 39.7287" fill="#CA9E67"/>
<path opacity="0.4" d="M0.839294 42.834L9.5048 56.2834L10.3441 56.3463L1.65759 40.7358L2.89552 38.1341L13.5753 55.1504L3.86068 37.6515L5.07763 36.6863L17.7717 53.5138L19.639 51.4785L7.74232 35.6163L3.1473 37.8613" fill="#CA9E67"/>
<path d="M11.0784 50.9121C14.0102 50.9121 16.3868 48.5354 16.3868 45.6036C16.3868 42.6719 14.0102 40.2952 11.0784 40.2952C8.14668 40.2952 5.77002 42.6719 5.77002 45.6036C5.77002 48.5354 8.14668 50.9121 11.0784 50.9121Z" fill="#7D4E24"/>
<path d="M11.0784 49.7581C13.3728 49.7581 15.2328 47.8981 15.2328 45.6037C15.2328 43.3093 13.3728 41.4493 11.0784 41.4493C8.78401 41.4493 6.92401 43.3093 6.92401 45.6037C6.92401 47.8981 8.78401 49.7581 11.0784 49.7581Z" fill="#CA9E67"/>
<path d="M11.0784 48.1424C12.4806 48.1424 13.6172 47.0058 13.6172 45.6036C13.6172 44.2015 12.4806 43.0648 11.0784 43.0648C9.67627 43.0648 8.53961 44.2015 8.53961 45.6036C8.53961 47.0058 9.67627 48.1424 11.0784 48.1424Z" fill="#7D4E24"/>
<path d="M36.5714 8.80147C36.5714 8.80147 31.9134 10.9836 27.3184 11.4242L27.675 10.1023C27.675 10.1023 21.3385 9.89253 20.1635 11.7809C20.1635 11.7809 19.9747 10.5849 20.7301 9.36798C20.7301 9.36798 16.4498 11.7809 11.7079 11.7809C6.96596 11.7809 15.1699 6.01088 15.1699 6.01088L32.6687 4.77295" fill="#F39200"/>
<path d="M14.5824 19.2295C14.5824 19.2295 15.6944 22.7125 19.0935 23.0692C22.4925 23.4259 24.8425 20.6353 27.3393 22.2719C28.1786 22.8174 29.2487 24.9575 24.3599 24.9575C19.4502 24.9785 12.652 24.9785 14.5824 19.2295Z" fill="#F9B233"/>
<path d="M37.1169 22.4817C37.1169 22.4817 36.3406 24.412 32.6688 23.3629C29.8992 22.5866 30.046 20.6353 27.9479 22.2928C27.2345 22.8384 26.3323 24.9785 30.4657 24.9785C34.5991 24.9785 37.1169 25.5031 37.1169 22.4817Z" fill="#F9B233"/>
<path d="M15.4007 21.8732C15.4007 21.8732 12.4213 27.6222 12.9878 29.4476L14.5824 28.5664C14.5824 28.5664 13.9529 32.8467 16.5127 34.3154L17.7716 32.9726C17.7716 32.9726 22.8702 36.6024 26.9197 37.6935C26.9197 37.6935 30.4657 35.3016 31.5567 33.4552V35.1547C31.5567 35.1547 33.6549 34.5042 34.5361 32.448C34.5361 32.448 35.9629 32.9306 36.5714 34.3154C36.5714 34.3154 37.8303 26.2374 34.3263 23.9084H34.0955L30.8433 23.4678C30.8433 23.4678 30.4447 26.1954 28.0527 26.1954C25.6608 26.1954 24.7796 23.5307 24.7796 23.5307L22.5975 24.5588" fill="#F9B233"/>
<path d="M30.8224 19.8799C30.9902 21.0129 28.5773 23.4048 27.4863 23.0272C26.2274 22.6075 25.4301 18.4112 26.605 17.7607C27.6122 17.1942 30.6335 18.7259 30.8224 19.8799Z" fill="#FFC2C4"/>
<path d="M22.1358 57.4794L21.926 58.9481H15.2538L17.3939 58.0459" fill="#936037"/>
<path d="M64.7291 8.96933L64.813 8.29791C60.4488 12.767 49.0976 9.34701 49.0976 9.34701L48.4471 15.8933C55.4341 14.7184 60.6796 19.2295 62.9246 21.6424C67.9183 16.6697 65.4844 10.522 64.7291 8.96933Z" fill="#8192A4"/>
<path d="M65.5473 7.39569C65.3375 7.7314 65.0857 8.02515 64.8129 8.3189L64.4143 8.67558C65.1696 10.2492 67.8973 16.6697 62.9246 21.6424C63.7219 22.4816 64.1415 23.0691 64.1415 23.0691C70.8557 15.5367 65.5473 7.39569 65.5473 7.39569Z" fill="#A3B9CC"/>
</svg>
